# File created by Blade
# Date/Time:  Wed Jan 21 18:34:34 2015
#---------------------------------------------------------
:version 1.10
:name HOM
:units
  mass 1.0
  length 1.000000
  angle deg
:documentation
     Acclaim Skeleton File
:root
   axis xyz
   order TX TY TZ RX RY RZ
   position 0.000000 0.000000 0.000000
   orientation 0 0 0
:bonedata
   begin
      id 1
      name RightUpLeg_dum
      direction -1.000000 0.000000 0.000000
      length 3.693983
      axis 0.0 0.0 0.0 xyz
   end
   begin
      id 2
      name LeftUpLeg_dum
      direction 1.000000 0.000000 0.000000
      length 3.693983
      axis 0.0 0.0 0.0 xyz
   end
   begin
      id 3
      name Spine_dum
      direction 0.000000 1.000000 0.000000
      length 2.392956
      axis 0.0 0.0 0.0 xyz
   end
   begin
      id 4
      name RightUpLeg
      direction 0.000000 -1.000000 0.000000
      length 15.795667
      axis 0.0 0.0 0.0 xyz
      dof rx ry rz
   end
   begin
      id 5
      name RightLeg
      direction 0.000000 -1.000000 0.000000
      length 14.766989
      axis 0.0 0.0 0.0 xyz
      dof rx ry rz
   end
   begin
      id 6
      name RightFoot
      direction 0.000000 -0.258819 0.965926
      length 4.962790
      axis 15.0 0.0 0.0 xyz
      dof rx ry rz
   end
   begin
      id 7
      name RightToeBase
      direction 0.000000 0.000000 1.000000
      length 2.952750
      axis 0.0 0.0 0.0 xyz
      dof rx ry rz
   end
   begin
      id 8
      name LeftUpLeg
      direction 0.000000 -1.000000 0.000000
      length 15.795667
      axis 0.0 0.0 0.0 xyz
      dof rx ry rz
   end
   begin
      id 9
      name LeftLeg
      direction 0.000000 -1.000000 0.000000
      length 14.766989
      axis 0.0 0.0 0.0 xyz
      dof rx ry rz
   end
   begin
      id 10
      name LeftFoot
      direction 0.000000 -0.258819 0.965926
      length 4.962790
      axis 15.0 0.0 0.0 xyz
      dof rx ry rz
   end
   begin
      id 11
      name LeftToeBase
      direction 0.000000 0.000000 1.000000
      length 2.952750
      axis 0.0 0.0 0.0 xyz
      dof rx ry rz
   end
   begin
      id 12
      name Spine
      direction 0.000000 1.000000 0.000000
      length 0.000000
      axis 0.0 0.0 0.0 xyz
      dof rx ry rz
   end
   begin
      id 13
      name Spine_dum1
      direction 0.000000 1.000000 0.000000
      length 13.207411
      axis 0.0 0.0 0.0 xyz
   end
   begin
      id 14
      name Spine_dum2
      direction 0.000000 1.000000 0.000000
      length 13.207411
      axis 0.0 0.0 0.0 xyz
   end
   begin
      id 15
      name Spine_dum3
      direction 0.000000 1.000000 0.000000
      length 19.250100
      axis 0.0 0.0 0.0 xyz
   end
   begin
      id 16
      name RightShoulder
      direction -1.000000 0.000000 0.000000
      length 8.140465
      axis 0.0 0.0 90.0 xyz
      dof rx ry rz
   end
   begin
      id 17
      name RightArm
      direction -1.000000 0.000000 0.000000
      length 10.649840
      axis 0.0 0.0 90.0 xyz
      dof rx ry rz
   end
   begin
      id 18
      name RightForeArm
      direction -1.000000 0.000000 0.000000
      length 8.304624
      axis 0.0 0.0 90.0 xyz
      dof ry rz rx
   end
   begin
      id 19
      name RightHand
      direction -1.000000 0.000000 0.000000
      length 0.000000
      axis 0.0 0.0 90.0 xyz
      dof rx ry rz
   end
   begin
      id 20
      name RightHand_dum1
      direction -1.000000 0.000000 0.000000
      length 3.937000
      axis 0.0 0.0 90.0 xyz
   end
   begin
      id 21
      name RightHand_dum2
      direction 0.000000 0.000000 0.000000
      length 0.000000
      axis 0.0 0.0 90.0 xyz
   end
   begin
      id 22
      name RightHandThumb1
      direction 0.000000 0.000000 1.000000
      length 3.937000
      axis 0.0 0.0 90.0 xyz
      dof rx rz ry
   end
   begin
      id 23
      name LeftShoulder
      direction 1.000000 0.000000 0.000000
      length 8.140465
      axis 0.0 0.0 -90.0 xyz
      dof rx ry rz
   end
   begin
      id 24
      name LeftArm
      direction 1.000000 0.000000 0.000000
      length 10.649840
      axis 0.0 0.0 -90.0 xyz
      dof rx ry rz
   end
   begin
      id 25
      name LeftForeArm
      direction 1.000000 0.000000 0.000000
      length 8.304624
      axis 0.0 0.0 -90.0 xyz
      dof ry rz rx
   end
   begin
      id 26
      name LeftHand
      direction 1.000000 0.000000 0.000000
      length 0.000000
      axis 0.0 0.0 -90.0 xyz
      dof rx ry rz
   end
   begin
      id 27
      name LeftHand_dum1
      direction 1.000000 0.000000 0.000000
      length 3.937000
      axis 0.0 0.0 -90.0 xyz
   end
   begin
      id 28
      name LeftHand_dum2
      direction 0.000000 0.000000 0.000000
      length 0.000000
      axis 0.0 0.0 -90.0 xyz
   end
   begin
      id 29
      name LeftHandThumb1
      direction 0.000000 0.000000 1.000000
      length 3.937000
      axis 0.0 0.0 -90.0 xyz
      dof rx rz ry
   end
   begin
      id 30
      name Head
      direction 0.000000 1.000000 0.000000
      length 4.527550
      axis 0.0 0.0 0.0 xyz
      dof rx ry rz
   end
:hierarchy
   begin
      root RightUpLeg_dum LeftUpLeg_dum Spine_dum
      RightUpLeg_dum RightUpLeg
      LeftUpLeg_dum LeftUpLeg
      Spine_dum Spine
      RightUpLeg RightLeg
      RightLeg RightFoot
      RightFoot RightToeBase
      LeftUpLeg LeftLeg
      LeftLeg LeftFoot
      LeftFoot LeftToeBase
      Spine Spine_dum1 Spine_dum2 Spine_dum3
      Spine_dum1 RightShoulder
      Spine_dum2 LeftShoulder
      Spine_dum3 Head
      RightShoulder RightArm
      RightArm RightForeArm
      RightForeArm RightHand
      RightHand RightHand_dum1 RightHand_dum2
      RightHand_dum2 RightHandThumb1
      LeftShoulder LeftArm
      LeftArm LeftForeArm
      LeftForeArm LeftHand
      LeftHand LeftHand_dum1 LeftHand_dum2
      LeftHand_dum2 LeftHandThumb1
   end

# File created by Blade
# Date/Time:  Wed Jan 21 18:34:41 2015
# Frame Rate: 120.000 fps
#------------------------------------------------------
:FULLY-SPECIFIED
:DEGREES
1361
root 2.747616 32.724738 -7.039487 45.101673 3.648259 1.988187
RightUpLeg -39.356019 -18.697350 9.069394
RightLeg -4.448315 -0.000000 0.000000
RightFoot -7.954008 -1.003648 23.003108
RightToeBase 21.708034 -0.000000 -0.000000
LeftUpLeg -41.203144 10.706336 -5.251577
LeftLeg -0.089587 -0.000000 0.000000
LeftFoot -2.471339 -8.684246 -15.277373
LeftToeBase 3.654862 -0.000000 -0.000000
Spine -47.909485 1.366322 -2.475828
RightShoulder -18.128283 9.754505 -30.677010
RightArm -4.408322 -13.633824 77.623636
RightForeArm 17.879745 -0.000000 -3.133372
RightHand 7.724299 -0.000000 14.501548
RightHandThumb1 -24.326973 -0.000000 -32.862282
LeftShoulder -8.299808 6.016005 26.497118
LeftArm 14.432227 6.725972 -78.218231
LeftForeArm 6.870597 0.000000 -3.244313
LeftHand -17.000505 0.000000 -13.510818
LeftHandThumb1 -26.253704 0.000000 33.147579
Head 2.218464 -1.296897 6.222868
1362
root 2.742005 32.722607 -7.043926 45.094134 3.623820 1.981683
RightUpLeg -39.362262 -18.668588 9.061365
RightLeg -4.436055 -0.000000 0.000000
RightFoot -7.945851 -0.966899 23.071313
RightToeBase 21.638299 -0.000000 -0.000000
LeftUpLeg -41.204751 10.692773 -5.219556
LeftLeg -0.072494 -0.000000 0.000000
LeftFoot -2.507645 -8.645070 -15.289591
LeftToeBase 3.649880 -0.000000 -0.000000
Spine -47.932979 1.327157 -2.456670
RightShoulder -18.052736 9.771578 -30.221782
RightArm -4.664753 -13.755757 78.802849
RightForeArm 19.058405 -0.000000 -3.213314
RightHand 7.256885 -0.000000 15.947724
RightHandThumb1 -24.326973 -0.000000 -32.862282
LeftShoulder -8.077470 6.016486 26.002768
LeftArm 14.086684 6.795418 -79.264581
LeftForeArm 5.454641 -0.000000 -3.557041
LeftHand -16.031116 -0.000000 -16.415524
LeftHandThumb1 -26.253704 0.000000 33.147579
Head 2.151760 -1.186767 6.245321
1363
root 2.735116 32.720065 -7.046432 45.085943 3.601342 1.967448
RightUpLeg -39.356957 -18.628247 9.056708
RightLeg -4.429241 -0.000000 0.000000
RightFoot -7.999380 -0.998662 23.002727
RightToeBase 21.719943 -0.000000 -0.000000
LeftUpLeg -41.207267 10.686777 -5.180681
LeftLeg -0.048270 -0.000000 0.000000
LeftFoot -2.562293 -8.605458 -15.288148
LeftToeBase 3.677733 -0.000000 -0.000000
Spine -47.958656 1.280947 -2.418856
RightShoulder -17.959340 9.792277 -29.813741
RightArm -4.954369 -13.772531 79.994667
RightForeArm 19.902961 -0.000000 -3.264624
RightHand 6.916738 -0.000000 17.404698
RightHandThumb1 -24.326973 -0.000000 -32.862282
LeftShoulder -7.905198 6.050802 25.510698
LeftArm 13.795920 6.901712 -80.274265
LeftForeArm 3.936683 -0.000000 -3.867737
LeftHand -15.101108 -0.000000 -19.166750
LeftHandThumb1 -26.253704 0.000000 33.147579
Head 2.091805 -1.071502 6.257961
1364
root 2.728578 32.718209 -7.049427 45.079618 3.570710 1.953285
RightUpLeg -39.361530 -18.591704 9.054283
RightLeg -4.416463 -0.000000 0.000000
RightFoot -7.992854 -0.960634 23.056300
RightToeBase 21.661707 -0.000000 -0.000000
LeftUpLeg -41.208066 10.687910 -5.148517
LeftLeg -0.032810 -0.000000 0.000000
LeftFoot -2.598668 -8.563780 -15.313701
LeftToeBase 3.663578 -0.000000 -0.000000
Spine -47.987578 1.238996 -2.383967
RightShoulder -17.831438 9.853680 -29.427096
RightArm -5.313755 -13.737373 81.214822
RightForeArm 21.001493 -0.000000 -3.284781
RightHand 6.543739 -0.000000 18.569449
RightHandThumb1 -24.326973 -0.000000 -32.862282
LeftShoulder -7.759644 5.998096 25.069831
LeftArm 13.431905 7.019411 -81.351168
LeftForeArm 2.549661 0.000000 -4.153195
LeftHand -14.300533 0.000000 -21.836254
LeftHandThumb1 -26.253704 0.000000 33.147579
Head 2.021160 -0.994862 6.249973
1365
root 2.720941 32.716207 -7.052295 45.073758 3.542462 1.940226
RightUpLeg -39.360923 -18.538069 9.037221
RightLeg -4.402028 -0.000000 0.000000
RightFoot -8.021911 -0.967120 23.063308
RightToeBase 21.679041 -0.000000 -0.000000
LeftUpLeg -41.216211 10.679292 -5.108629
LeftLeg -0.000798 -0.000000 0.000000
LeftFoot -2.642230 -8.519195 -15.308329
LeftToeBase 3.659181 -0.000000 -0.000000
Spine -48.018611 1.196386 -2.365780
RightShoulder -17.719021 9.831526 -29.027751
RightArm -5.563482 -13.773251 82.422314
RightForeArm 22.137841 -0.000000 -3.342624
RightHand 6.367459 -0.000000 19.363238
RightHandThumb1 -24.326973 -0.000000 -32.862282
LeftShoulder -7.645759 5.952954 24.683124
LeftArm 13.129769 7.141962 -82.462343
LeftForeArm 1.273142 -0.000000 -4.385930
LeftHand -13.780668 -0.000000 -24.141689
LeftHandThumb1 -26.253704 0.000000 33.147579
Head 1.938292 -0.930892 6.271066
1366
root 2.713757 32.713981 -7.052863 45.062362 3.506548 1.922264
RightUpLeg -39.353480 -18.497521 9.031719
RightLeg -4.388953 -0.000000 0.000000
RightFoot -8.059852 -0.974961 22.984360
RightToeBase 21.730922 -0.000000 -0.000000
LeftUpLeg -41.207099 10.691828 -5.080383
LeftLeg 0.011144 -0.000000 -0.000000
LeftFoot -2.685158 -8.475416 -15.306895
LeftToeBase 3.651066 -0.000000 -0.000000
Spine -48.046848 1.151838 -2.338141
RightShoulder -17.595617 9.807826 -28.630518
RightArm -5.799344 -13.765250 83.582139
RightForeArm 22.922615 -0.000000 -3.349936
RightHand 6.156102 -0.000000 20.105404
RightHandThumb1 -24.326973 -0.000000 -32.862282
LeftShoulder -7.597686 5.865405 24.358610
LeftArm 12.786402 7.458180 -83.605268
LeftForeArm 0.055049 -0.000000 -4.532603
LeftHand -13.456988 -0.000000 -25.810386
LeftHandThumb1 -26.253704 0.000000 33.147579
Head 1.855382 -0.865226 6.275138
1367
root 2.707344 32.712001 -7.055294 45.056262 3.467784 1.911174
RightUpLeg -39.362269 -18.468474 9.034668
RightLeg -4.377951 -0.000000 0.000000
RightFoot -8.064821 -0.929795 23.055722
RightToeBase 21.712969 -0.000000 -0.000000
LeftUpLeg -41.219661 10.751558 -5.108211
LeftLeg 0.033026 -0.000000 -0.000000
LeftFoot -2.705066 -8.501635 -15.288766
LeftToeBase 3.628178 -0.000000 -0.000000
Spine -48.072976 1.100705 -2.315951
RightShoulder -17.473651 9.723050 -28.217107
RightArm -5.951223 -14.038224 84.729454
RightForeArm 23.674405 -0.000000 -3.303085
RightHand 5.969293 0.000000 20.656959
RightHandThumb1 -24.326973 -0.000000 -32.862282
LeftShoulder -7.566089 5.743366 24.083193
LeftArm 12.417172 7.846758 -84.803650
LeftForeArm -0.669851 -0.000000 -4.568911
LeftHand -13.274128 -0.000000 -26.928320
LeftHandThumb1 -26.253704 0.000000 33.147579
Head 1.758997 -0.782549 6.288320
1368
root 2.700306 32.709816 -7.059554 45.042132 3.442056 1.885559
RightUpLeg -39.356305 -18.407220 9.029726
RightLeg -4.362354 -0.000000 0.000000
RightFoot -8.105571 -0.986461 22.947279
RightToeBase 21.708131 -0.000000 -0.000000
LeftUpLeg -41.215771 10.748049 -5.056537
LeftLeg 0.051451 -0.000000 -0.000000
LeftFoot -2.751723 -8.453827 -15.280393
LeftToeBase 3.597752 -0.000000 -0.000000
Spine -48.080473 1.062886 -2.288164
RightShoulder -17.382123 9.665248 -27.832726
RightArm -6.108367 -14.488795 85.889426
RightForeArm 24.263542 -0.000000 -3.204902
RightHand 5.788493 -0.000000 20.935151
RightHandThumb1 -24.326973 -0.000000 -32.862282
LeftShoulder -7.546324 5.585004 23.853981
LeftArm 12.025601 8.271257 -86.017374
LeftForeArm -1.305968 -0.000000 -4.512280
LeftHand -13.117660 -0.000000 -27.467535
LeftHandThumb1 -26.253704 0.000000 33.147579
Head 1.617797 -0.696326 6.300452
1369
root 2.693872 32.708299 -7.061161 45.036115 3.404539 1.876915
RightUpLeg -39.363413 -18.387830 9.033290
RightLeg -4.349831 -0.000000 0.000000
RightFoot -8.122566 -0.941198 22.961483
RightToeBase 21.761441 -0.000000 -0.000000
LeftUpLeg -41.229759 10.783940 -5.069540
LeftLeg 0.085867 -0.000000 -0.000000
LeftFoot -2.788589 -8.438439 -15.279443
LeftToeBase 3.609556 -0.000000 -0.000000
Spine -48.099423 1.015911 -2.283908
RightShoulder -17.315061 9.605465 -27.458821
RightArm -6.217296 -15.174461 87.031090
RightForeArm 24.589853 -0.000000 -3.131810
RightHand 5.630691 0.000000 21.276531
RightHandThumb1 -24.326973 -0.000000 -32.862282
LeftShoulder -7.539232 5.493404 23.662163
LeftArm 11.692157 8.885718 -87.218409
LeftForeArm -1.814160 -0.000000 -4.333978
LeftHand -12.827120 -0.000000 -27.869649
LeftHandThumb1 -26.253704 0.000000 33.147579
Head 1.479149 -0.604026 6.334912
1370
root 2.686539 32.706280 -7.061261 45.041731 3.359400 1.858096
RightUpLeg -39.378345 -18.346985 9.041965
RightLeg -4.340514 -0.000000 0.000000
RightFoot -8.132869 -0.927318 22.900671
RightToeBase 21.764333 -0.000000 -0.000000
LeftUpLeg -41.241278 10.818413 -5.064824
LeftLeg 0.101956 -0.000000 -0.000000
LeftFoot -2.825556 -8.418946 -15.267003
LeftToeBase 3.597371 -0.000000 -0.000000
Spine -48.134894 0.996246 -2.303589
RightShoulder -17.280674 9.504803 -27.094829
RightArm -6.311475 -16.042095 88.182772
RightForeArm 24.828055 -0.000000 -2.958108
RightHand 5.571703 -0.000000 21.379518
RightHandThumb1 -24.326973 -0.000000 -32.862282
LeftShoulder -7.506341 5.422223 23.513740
LeftArm 11.378104 9.692842 -88.397893
LeftForeArm -2.167173 -0.000000 -4.036418
LeftHand -12.768123 -0.000000 -27.833136
LeftHandThumb1 -26.253704 0.000000 33.147579
Head 1.338682 -0.555796 6.378730
1371
root 2.681613 32.704506 -7.062110 45.055885 3.319604 1.849663
RightUpLeg -39.385379 -18.246420 8.977938
RightLeg -4.319913 -0.000000 0.000000
RightFoot -8.189490 -0.982736 22.947020
RightToeBase 21.780509 -0.000000 -0.000000
LeftUpLeg -41.268676 10.917867 -5.139370
LeftLeg 0.101464 -0.000000 -0.000000
LeftFoot -2.815783 -8.497195 -15.242743
LeftToeBase 3.577228 -0.000000 -0.000000
Spine -48.173682 0.978048 -2.327250
RightShoulder -17.274246 9.449031 -26.793570
RightArm -6.498759 -17.257983 89.408569
RightForeArm 25.147816 -0.000000 -2.665681
RightHand 5.457774 -0.000000 21.476276
RightHandThumb1 -24.326973 -0.000000 -32.862282
LeftShoulder -7.467459 5.363273 23.368498
LeftArm 11.099919 10.546722 -89.543346
LeftForeArm -2.587955 -0.000000 -3.733281
LeftHand -12.521522 0.000000 -27.809463
LeftHandThumb1 -26.253704 0.000000 33.147579
Head 1.184409 -0.503764 6.395539
